<?xml version="1.0" encoding="UTF-8"?>
<svg xmlns="http://www.w3.org/2000/svg" width="1600" height="900" viewBox="0 0 1600 900">
  <rect x="0" y="0" width="1600" height="900" rx="0" fill="#F7F5EF" stroke="none" stroke-width="0"/>
  <text x="76" y="82" text-anchor="start" fill="#1E4E82" font-family="DejaVu Sans" font-size="19" font-weight="700" letter-spacing="1.7"><tspan x="76" dy="0">KERNEL-ADAPTIVE MEMORY · PHASE VI</tspan></text><text x="76" y="235" text-anchor="start" fill="#132238" font-family="DejaVu Sans" font-size="72" font-weight="760"><tspan x="76" dy="0">Sparse Separable</tspan><tspan x="76" dy="82">Memory for</tspan><tspan x="76" dy="82">Sequence Models</tspan></text><text x="80" y="535" text-anchor="start" fill="#334155" font-family="DejaVu Sans" font-size="29" font-weight="400"><tspan x="80" dy="0">Can a sequence model gain large, adaptable memory</tspan><tspan x="80" dy="42">without activating all of it for every token?</tspan></text><rect x="80" y="650" width="290" height="38" rx="19" fill="#F7E8BF" stroke="none" stroke-width="0"/><text x="225" y="676" text-anchor="middle" fill="#7A5713" font-family="DejaVu Sans" font-size="18" font-weight="700" letter-spacing="0.5"><tspan x="225" dy="0">PROFESSOR DISCUSSION DECK</tspan></text><text x="80" y="730" text-anchor="start" fill="#6B7280" font-family="DejaVu Sans" font-size="22" font-weight="500"><tspan x="80" dy="0">July 2026</tspan></text><rect x="910" y="105" width="570" height="650" rx="36" fill="#FFFFFF" stroke="#D9DEE6" stroke-width="2"/><line x1="1045" y1="320" x2="1285" y2="465" stroke="#2B6CB0" stroke-width="5" stroke-linecap="round"/><line x1="1285" y1="465" x2="1385" y2="655" stroke="#2B6CB0" stroke-width="5" stroke-linecap="round"/><line x1="1045" y1="320" x2="1185" y2="560" stroke="#2B6CB0" stroke-width="5" stroke-linecap="round"/><circle cx="985" cy="180" r="12" fill="#ECEFF3" stroke="#D9DEE6" stroke-width="2"/><circle cx="1085" cy="180" r="12" fill="#ECEFF3" stroke="#D9DEE6" stroke-width="2"/><circle cx="1185" cy="180" r="12" fill="#ECEFF3" stroke="#D9DEE6" stroke-width="2"/><circle cx="1285" cy="180" r="12" fill="#ECEFF3" stroke="#D9DEE6" stroke-width="2"/><circle cx="1385" cy="180" r="12" fill="#ECEFF3" stroke="#D9DEE6" stroke-width="2"/><circle cx="985" cy="275" r="12" fill="#ECEFF3" stroke="#D9DEE6" stroke-width="2"/><circle cx="1085" cy="275" r="12" fill="#ECEFF3" stroke="#D9DEE6" stroke-width="2"/><circle cx="1185" cy="275" r="12" fill="#ECEFF3" stroke="#D9DEE6" stroke-width="2"/><circle cx="1285" cy="275" r="20" fill="#2B6CB0" stroke="#1E4E82" stroke-width="4"/><circle cx="1385" cy="275" r="12" fill="#ECEFF3" stroke="#D9DEE6" stroke-width="2"/><circle cx="985" cy="370" r="12" fill="#ECEFF3" stroke="#D9DEE6" stroke-width="2"/><circle cx="1085" cy="370" r="12" fill="#ECEFF3" stroke="#D9DEE6" stroke-width="2"/><circle cx="1185" cy="370" r="12" fill="#ECEFF3" stroke="#D9DEE6" stroke-width="2"/><circle cx="1285" cy="370" r="12" fill="#ECEFF3" stroke="#D9DEE6" stroke-width="2"/><circle cx="1385" cy="370" r="12" fill="#ECEFF3" stroke="#D9DEE6" stroke-width="2"/><circle cx="985" cy="465" r="12" fill="#ECEFF3" stroke="#D9DEE6" stroke-width="2"/><circle cx="1085" cy="465" r="12" fill="#ECEFF3" stroke="#D9DEE6" stroke-width="2"/><circle cx="1185" cy="465" r="20" fill="#2B6CB0" stroke="#1E4E82" stroke-width="4"/><circle cx="1285" cy="465" r="12" fill="#ECEFF3" stroke="#D9DEE6" stroke-width="2"/><circle cx="1385" cy="465" r="12" fill="#ECEFF3" stroke="#D9DEE6" stroke-width="2"/><circle cx="985" cy="560" r="12" fill="#ECEFF3" stroke="#D9DEE6" stroke-width="2"/><circle cx="1085" cy="560" r="12" fill="#ECEFF3" stroke="#D9DEE6" stroke-width="2"/><circle cx="1185" cy="560" r="12" fill="#ECEFF3" stroke="#D9DEE6" stroke-width="2"/><circle cx="1285" cy="560" r="12" fill="#ECEFF3" stroke="#D9DEE6" stroke-width="2"/><circle cx="1385" cy="560" r="20" fill="#2B6CB0" stroke="#1E4E82" stroke-width="4"/><circle cx="985" cy="655" r="12" fill="#ECEFF3" stroke="#D9DEE6" stroke-width="2"/><circle cx="1085" cy="655" r="12" fill="#ECEFF3" stroke="#D9DEE6" stroke-width="2"/><circle cx="1185" cy="655" r="12" fill="#ECEFF3" stroke="#D9DEE6" stroke-width="2"/><circle cx="1285" cy="655" r="12" fill="#ECEFF3" stroke="#D9DEE6" stroke-width="2"/><circle cx="1385" cy="655" r="12" fill="#ECEFF3" stroke="#D9DEE6" stroke-width="2"/><text x="1195" y="790" text-anchor="middle" fill="#1E4E82" font-family="DejaVu Sans" font-size="20" font-weight="700"><tspan x="1195" dy="0">Large memory · small active path</tspan></text>
</svg>